<svg xmlns="http://www.w3.org/2000/svg" width="1200" height="630" viewBox="0 0 1200 630" role="img" aria-labelledby="title desc">
  <title id="title">CoReason repository placeholder</title>
  <desc id="desc">Placeholder artwork for the CoReason project card.</desc>
  <defs>
    <linearGradient id="bg" x1="0%" y1="0%" x2="100%" y2="100%">
      <stop offset="0%" stop-color="#1f3a8a"/>
      <stop offset="55%" stop-color="#2563eb"/>
      <stop offset="100%" stop-color="#0f172a"/>
    </linearGradient>
    <linearGradient id="accent" x1="0%" y1="0%" x2="100%" y2="0%">
      <stop offset="0%" stop-color="#f59e0b"/>
      <stop offset="100%" stop-color="#f97316"/>
    </linearGradient>
  </defs>
  <rect width="1200" height="630" fill="url(#bg)"/>
  <g opacity="0.14">
    <circle cx="170" cy="140" r="130" fill="#ffffff"/>
    <circle cx="1050" cy="500" r="210" fill="#ffffff"/>
    <circle cx="980" cy="140" r="90" fill="#ffffff"/>
  </g>
  <g fill="none" stroke="#ffffff" stroke-width="6" opacity="0.5">
    <path d="M160 398c96-118 258-169 404-134 126 30 208 98 350 63"/>
    <path d="M185 450c74-61 143-84 224-87 69-3 157 14 257 54"/>
  </g>
  <rect x="76" y="72" width="210" height="10" rx="5" fill="url(#accent)"/>
  <text x="80" y="168" fill="#ffffff" font-family="Manrope, Segoe UI, Arial, sans-serif" font-size="88" font-weight="800" letter-spacing="-1">
    CoReason
  </text>
  <text x="80" y="234" fill="#dbeafe" font-family="Manrope, Segoe UI, Arial, sans-serif" font-size="33" font-weight="700">
    Collaborative reasoning project
  </text>
  <text x="80" y="300" fill="#e2e8f0" font-family="Manrope, Segoe UI, Arial, sans-serif" font-size="27" font-weight="600">
    Repository reference in ApartsinProjects
  </text>
</svg>
